<svg xmlns="http://www.w3.org/2000/svg" viewBox="0 0 612 792"><defs><style>.cls-1{fill:#ee720d;}.cls-1,.cls-2,.cls-3,.cls-4{stroke:#141414;stroke-miterlimit:10;stroke-width:5px;}.cls-2{fill:none;}.cls-3{fill:#777;}.cls-4,.cls-5{fill:#141414;}.cls-6{fill:#fff;}</style></defs><title>Artboard 1</title><g id="Layer_2" data-name="Layer 2"><path class="cls-1" d="M291.5,229.5s95.12,0,111,0c17.17.75,88-8,103,68,8.79,44.56,14,70.73,16.76,84.75a158.13,158.13,0,0,1,3,28.21c.36,21.89.83,63.25-.27,85.54-1.34,27.16-2,56.5-60,67s-203.5,9-203.5,9-99-5-115-9.5-58-2-58.5-73.5,1.5-145,3.5-163.5,8-53,18-67.5,40-19,49.5-19.5S278.13,228.88,291.5,229.5Z"/></g><g id="Layer_7" data-name="Layer 7"><path class="cls-2" d="M291.5,229.5l-12-25.12s-4.26-9.94,4.87-20.84"/></g><g id="Layer_4" data-name="Layer 4"><path class="cls-3" d="M524.37,396s27.13,15.17,33,22.17c4.59,5.51,3.71,40.72,3.13,55.49a18.28,18.28,0,0,1-4.71,11.56c-7.22,8-21.73,22.7-31.62,24.27C510.5,511.67,512.91,393.67,524.37,396Z"/><path class="cls-3" d="M86.7,507.53s-27.13-15.17-33-22.17c-4.59-5.51-3.71-40.72-3.13-55.49a18.28,18.28,0,0,1,4.71-11.56c7.22-8,21.73-22.7,31.62-24.27C100.57,391.86,98.16,509.86,86.7,507.53Z"/></g><g id="Layer_5" data-name="Layer 5"><path class="cls-1" d="M559.43,424.39s20.69-2.14,22.32,24.74-22.82,31.19-22.82,31.19S550.49,443.15,559.43,424.39Z"/><path class="cls-1" d="M49.57,480.72S28.88,482.86,27.25,456,50.07,424.8,50.07,424.8,58.51,462,49.57,480.72Z"/></g><g id="Layer_3" data-name="Layer 3"><path class="cls-3" d="M300,326s94.67-1.67,122,7.33,43.33,7.33,58.67,92.33-18,104-62.67,105-240.67,0-240.67,0-33.33,0-42.67-18.67-6.33-79-6.33-79-2-62,23-84,54.22-20.52,83.67-21.67Z"/></g><g id="Layer_6" data-name="Layer 6"><path class="cls-1" d="M291.63,118.13s-33.31.38-33.31,33.31,32.94,32.94,32.94,32.94,32.94.88,32.94-32.94S291.63,118.13,291.63,118.13Z"/><path class="cls-4" d="M291.42,136.42s-14.92.17-14.92,14.92,14.75,14.75,14.75,14.75,14.75.39,14.75-14.75S291.42,136.42,291.42,136.42Z"/></g><g id="Layer_8" data-name="Layer 8"><path class="cls-2" d="M270.94,459.06l.31,2.31s3.5,31,34.75,31,33.25-31,33.25-31v-2.25"/></g><g id="Layer_9" data-name="Layer 9"><path class="cls-5" d="M198.17,399.83s-26.83,1.5-26.83,26.83,27.58,27.58,27.58,27.58,28,3.58,28-28S198.17,399.83,198.17,399.83Z"/><path class="cls-6" d="M199.28,408.52a3.37,3.37,0,0,0-2,2.14c-1,3.17-2.56,11,3.84,15.6,8.17,5.92,16.42,5.33,17.75,1.83s2.17-13.67-3.67-17.5A18.63,18.63,0,0,0,199.28,408.52Z"/><path class="cls-6" d="M192.42,438.92a9,9,0,0,0-6.83,0c-3.25,1.58-.92,6.42,1,7.5s7,2.17,7.75,1.33S196.67,440.67,192.42,438.92Z"/><path class="cls-5" d="M405.67,399.26s-26.83,1.5-26.83,26.83,27.58,27.58,27.58,27.58,28,3.58,28-28S405.67,399.26,405.67,399.26Z"/><path class="cls-6" d="M406.78,407.94a3.37,3.37,0,0,0-2,2.14c-1,3.17-2.56,11,3.84,15.6,8.17,5.92,16.42,5.33,17.75,1.83s2.17-13.67-3.67-17.5A18.63,18.63,0,0,0,406.78,407.94Z"/><path class="cls-6" d="M399.92,438.34a9,9,0,0,0-6.83,0c-3.25,1.58-.92,6.42,1,7.5s7,2.17,7.75,1.33S404.17,440.09,399.92,438.34Z"/></g></svg>