<svg width="32" height="32" xmlns="http://www.w3.org/2000/svg">
 <title/>
 <desc/>

 <g>
  <title>background</title>
  <rect fill="none" id="canvas_background" height="402" width="582" y="-1" x="-1"/>
 </g>
 <g>
  <title>Layer 1</title>
  <path fill="#ffffff" id="box-filled" d="m4,12l5,-8l15,0l5,8l0,1.5l0,14.5l-25,0l0,-16l0,0zm23.77502,0l-4.375,-7l-13.80004,0l-4.375,7l22.55004,0l0,0zm-13.77763,6c-1.10313,0 -1.99739,0.88773 -1.99739,2c0,1.10457 0.89586,2 1.99739,2l5.00522,0c1.10313,0 1.99739,-0.88773 1.99739,-2c0,-1.10457 -0.89586,-2 -1.99739,-2l-5.00522,0l0,0zm-2.99739,-12l-0.59998,1l12.19996,0l-0.59998,-1l-11,0l0,0zm-1.30005,2l-0.59997,1l14.80004,0l-0.59997,-1l-13.6001,0l0,0zm-1.19995,2l-0.59998,1l17.19996,0l-0.59998,-1l-16,0l0,0z"/>
 </g>
</svg>