<svg width="32" height="32" xmlns="http://www.w3.org/2000/svg">
 <title/>
 <desc/>

 <g>
  <title>background</title>
  <rect fill="none" id="canvas_background" height="402" width="582" y="-1" x="-1"/>
 </g>
 <g>
  <title>Layer 1</title>
  <path fill="#222222" id="document-add" d="m21,25l0,-3l1,0l0,3l3,0l0,1l-3,0l0,3l-1,0l0,-3l-3,0l0,-1l3,0l0,0zm-4.97818,4l-9.0244,0c-1.10649,0 -1.99742,-0.89871 -1.99742,-2.00733l0,-22.98534c0,-1.10899 0.89925,-2.00733 2.00853,-2.00733l9.99147,0l0,6.0019c0,1.11139 0.89808,1.9981 2.00592,1.9981l4.99408,0l0,9.49816c-0.76959,-0.32093 -1.6141,-0.49816 -2.5,-0.49816c-3.58985,0 -6.5,2.91015 -6.5,6.5c0,1.28864 0.375,2.4897 1.02182,3.5l0,0l0,0zm1.97818,-27l0,5.99707c0,0.5539 0.45098,1.00293 0.99078,1.00293l5.00922,0l-6,-7l0,0zm3.5,29c3.03757,0 5.5,-2.46243 5.5,-5.5c0,-3.03757 -2.46243,-5.5 -5.5,-5.5c-3.03757,0 -5.5,2.46243 -5.5,5.5c0,3.03757 2.46243,5.5 5.5,5.5l0,0z"/>
 </g>
</svg>